<?xml version="1.0" encoding="UTF-8" standalone="no"?>
<!DOCTYPE svg PUBLIC "-//W3C//DTD SVG 1.1//EN" "http://www.w3.org/Graphics/SVG/1.1/DTD/svg11.dtd">
<svg width="100%" height="100%" viewBox="0 0 60 60" version="1.1" xmlns="http://www.w3.org/2000/svg" xmlns:xlink="http://www.w3.org/1999/xlink" xml:space="preserve" xmlns:serif="http://www.serif.com/" style="fill-rule:evenodd;clip-rule:evenodd;stroke-linejoin:round;stroke-miterlimit:2;">
    <g id="Capa1">
        <path d="M60,12C60,5.377 54.623,0 48,0L12,0C5.377,0 0,5.377 0,12L0,48C0,54.623 5.377,60 12,60L48,60C54.623,60 60,54.623 60,48L60,12Z" style="fill:rgb(0,0,175);"/>
    </g>
    <g transform="matrix(0.95953,0,0,1.08404,-8.59134,29.3569)">
        <g transform="matrix(54.452,0,0,54.452,35.8498,18.2609)">
            <path d="M0.326,-0.082L0.474,-0.082C0.485,-0.082 0.495,-0.078 0.504,-0.07C0.512,-0.062 0.516,-0.052 0.516,-0.041C0.516,-0.03 0.512,-0.02 0.504,-0.012C0.495,-0.004 0.486,-0 0.474,-0L0.321,-0C0.301,-0 0.281,-0.006 0.26,-0.019C0.239,-0.031 0.225,-0.045 0.217,-0.06L0.122,-0.243C0.109,-0.27 0.103,-0.297 0.103,-0.324C0.103,-0.355 0.109,-0.381 0.121,-0.404L0.217,-0.585C0.226,-0.602 0.24,-0.617 0.259,-0.63C0.278,-0.642 0.297,-0.649 0.315,-0.649L0.477,-0.649C0.488,-0.649 0.498,-0.645 0.506,-0.637C0.514,-0.629 0.518,-0.619 0.518,-0.608C0.518,-0.597 0.514,-0.587 0.506,-0.578C0.498,-0.57 0.488,-0.566 0.477,-0.566L0.321,-0.566C0.308,-0.566 0.297,-0.558 0.289,-0.543L0.198,-0.373C0.191,-0.36 0.187,-0.344 0.188,-0.326C0.187,-0.306 0.191,-0.29 0.199,-0.275L0.286,-0.108C0.294,-0.091 0.307,-0.082 0.326,-0.082Z" style="fill:white;fill-rule:nonzero;"/>
        </g>
    </g>
    <g transform="matrix(1.08851,0,0,1.22975,-6.27221,26.21)">
        <g transform="matrix(48,0,0,48,7.54941,18.6561)">
            <path d="M0.339,-0.649L0.475,-0.649C0.486,-0.649 0.496,-0.645 0.504,-0.637C0.512,-0.629 0.516,-0.619 0.516,-0.608C0.516,-0.596 0.512,-0.586 0.503,-0.578C0.495,-0.57 0.485,-0.566 0.475,-0.566L0.345,-0.566C0.332,-0.566 0.321,-0.56 0.312,-0.548L0.197,-0.4C0.187,-0.388 0.182,-0.372 0.182,-0.351L0.182,-0.124C0.182,-0.112 0.186,-0.102 0.194,-0.094C0.202,-0.086 0.212,-0.082 0.223,-0.082L0.39,-0.082C0.401,-0.082 0.411,-0.086 0.419,-0.094C0.427,-0.102 0.431,-0.112 0.431,-0.123L0.431,-0.212L0.346,-0.212C0.334,-0.212 0.325,-0.216 0.317,-0.224C0.309,-0.232 0.305,-0.242 0.305,-0.253C0.305,-0.264 0.309,-0.274 0.317,-0.282C0.325,-0.29 0.334,-0.294 0.346,-0.294L0.513,-0.294L0.513,-0.123C0.513,-0.089 0.501,-0.06 0.477,-0.036C0.453,-0.012 0.424,-0 0.39,-0L0.223,-0C0.189,-0 0.16,-0.012 0.135,-0.036C0.111,-0.06 0.099,-0.089 0.099,-0.123L0.099,-0.35C0.099,-0.391 0.11,-0.425 0.132,-0.453L0.253,-0.607C0.262,-0.619 0.274,-0.629 0.29,-0.637C0.306,-0.645 0.322,-0.649 0.339,-0.649Z" style="fill:white;fill-rule:nonzero;"/>
        </g>
    </g>
</svg>
